<svg xmlns="http://www.w3.org/2000/svg" xml:space="preserve" width="1500" height="1500" data-id="lg_HFAdkm3XN4qIobE3J1" data-version="1" viewBox="0 0 1500 1500"><path fill="#fff" stroke="transparent" d="M0 0h1500v1500H0z"/><g data-padding="20"><g transform="translate(-502.115 -514.913)scale(1.63479)"><rect width="456.8" height="117.52" x="141.016" y="349.457" fill="none" rx="0" ry="0" transform="translate(463.66 378.79)"/><path fill="#223fe6" d="M647.546 821.157q-10.3 0-17.68-3.59t-12.06-9.46q-4.68-5.88-6.92-12.69t-2.24-13.26v-2.29q0-7.07 2.29-13.99 2.29-6.91 7.02-12.53 4.73-5.61 11.96-8.99t17.11-3.38q10.3 0 18.2 3.84 7.9 3.85 12.64 10.66 4.73 6.82 5.56 15.97h-17.16q-.73-4.58-3.33-7.8-2.6-3.23-6.71-4.99-4.1-1.77-9.2-1.77t-9.05 1.77q-3.95 1.76-6.6 4.99-2.65 3.22-4.06 7.64-1.4 4.42-1.4 9.83 0 5.3 1.4 9.72 1.41 4.42 4.16 7.7 2.76 3.28 6.81 4.99 4.06 1.72 9.26 1.72 7.9 0 13.36-3.85t6.61-10.61h17.05q-.93 8.32-5.56 15.24-4.63 6.91-12.58 11.02-7.96 4.11-18.88 4.11m95.06-1.98h-13.21v-16.84h-2.81v-18.31q0-4.37-2.08-6.55t-6.66-2.18q-2.28 0-6.03.1-3.74.1-7.69.31-3.96.21-7.18.42v-14.04q2.39-.21 5.62-.42 3.22-.21 6.65-.31t6.45-.1q8.74 0 14.72 2.49 5.98 2.5 9.1 7.54 3.12 5.05 3.12 12.95Zm-31.41 1.46q-6.14 0-10.77-2.18-4.62-2.19-7.22-6.3-2.6-4.1-2.6-9.82 0-6.24 3.22-10.25 3.22-4 9.05-5.93 5.82-1.92 13.41-1.92h12.17v9.26h-12.27q-4.37 0-6.71 2.13t-2.34 5.77q0 3.43 2.34 5.56 2.34 2.14 6.71 2.14 2.81 0 5.04-.99 2.24-.99 3.7-3.38 1.45-2.39 1.66-6.66l3.95 4.16q-.52 5.93-2.86 9.99-2.34 4.05-6.45 6.24-4.1 2.18-10.03 2.18m62.19-1.46h-16.64v-56.99h13.21v24.44h-.31q0-12.06 5.14-18.61 5.15-6.56 14.93-6.56h2.18v14.36h-4.16q-6.86 0-10.61 3.69-3.74 3.69-3.74 10.66Zm53.25 1.98q-7.28 0-12.85-2.5-5.56-2.49-9.25-6.7-3.69-4.22-5.62-9.47-1.92-5.25-1.92-10.76v-2.08q0-5.72 1.92-10.97 1.93-5.26 5.57-9.42t9.1-6.6 12.42-2.44q9.16 0 15.45 4.1 6.29 4.11 9.62 10.72 3.33 6.6 3.33 14.4v5.62h-50.44v-9.47h40.35l-5.41 4.37q0-5.1-1.46-8.74-1.45-3.64-4.31-5.56t-7.13-1.92q-4.36 0-7.38 1.97-3.02 1.98-4.58 5.77-1.56 3.8-1.56 9.31 0 5.1 1.46 8.89 1.46 3.8 4.58 5.88t8.11 2.08q4.57 0 7.49-1.77 2.91-1.77 3.95-4.37h15.29q-1.25 5.72-4.89 10.2-3.64 4.47-9.15 6.96-5.52 2.5-12.69 2.5m56.26-1.98h-16.74v-75.92h16.74Zm0-63.64h-23.5v-12.28h23.5Zm34.62 63.63h-16.64v-56.99h16.64Zm0-44.72h-24.23v-12.27h24.23Zm-10.19-17.88q-4.68 0-6.91-2.45-2.24-2.44-2.24-6.19 0-3.84 2.24-6.29 2.23-2.44 6.91-2.44t6.92 2.44q2.23 2.45 2.23 6.29 0 3.75-2.23 6.19-2.24 2.45-6.92 2.45m42.24 62.61h-16.64v-56.99h13.2v24.44h-.93q0-8.73 2.23-14.56 2.24-5.82 6.82-8.73 4.57-2.92 11.12-2.92h.73q9.99 0 15.24 6.5t5.25 19.71v32.55h-16.64v-33.48q0-4.58-2.7-7.49-2.71-2.91-7.28-2.91-4.68 0-7.54 2.96t-2.86 7.75Zm110.03 0h-18.72l-17.99-26.62h-8.01l23.19-30.37h17.47l-21.84 28.29.21-8.11Zm-42.23 0h-16.64v-75.92h16.64Z" paint-order="stroke"/><path fill="#223fe6" d="M554.89 739.408v-37.68h-46.848v37.68h-37.68v46.818h36.11v37.68h49.988v-37.68h36.11v-46.819Zm-23.424 48.67s-25.968-8.478-25.968-26.862a14.177 14.177 0 0 1 25.968-7.898 14.177 14.177 0 0 1 25.968 7.882c-.016 18.416-25.968 26.894-25.968 26.894"/></g><path fill="transparent" stroke="transparent" stroke-width="1.692" d="M250 628.173h1000v243.654H250z"/></g></svg>